PathFileType	4	(X/Y/Z)	Walk9.trc
DataRate	CameraRate	NumFrames	NumMarkers	Units	OrigDataRate	OrigDataStartFrame	OrigNumFrames
200.000000	200.000000	9	59	mm	200.000000	431	546
Frame#	Times		LBHD		C7		RBack		LPSI		RPSI		RCAR		LElbowM		LTB1		LLFC		T10		LUA1		RElbowM		CLAV		RFA1		LCAR		RUA1		LFA1		RACR1		LACR1		LWRU		RFHD		RTH3		LWRR		RTH2		RTB1		RTB4		RTB3		RToe		RWRU		RMT1		RBHD		LFHD		RTH4		RLFC		RCAL		RWRR		RMT5		RTH1		LTH3		LTH4		RTB2		LTH1		LElbow		RMMAL		LMT1		STRN		RElbow		LTH2		LTB2		RASI		LTB3		RLMAL		LCAL		LToe		LASI		LLMAL		LMT5		LTB4		LMMAL
			X1	Y1	Z1	X2	Y2	Z2	X3	Y3	Z3	X4	Y4	Z4	X5	Y5	Z5	X6	Y6	Z6	X7	Y7	Z7	X8	Y8	Z8	X9	Y9	Z9	X10	Y10	Z10	X11	Y11	Z11	X12	Y12	Z12	X13	Y13	Z13	X14	Y14	Z14	X15	Y15	Z15	X16	Y16	Z16	X17	Y17	Z17	X18	Y18	Z18	X19	Y19	Z19	X20	Y20	Z20	X21	Y21	Z21	X22	Y22	Z22	X23	Y23	Z23	X24	Y24	Z24	X25	Y25	Z25	X26	Y26	Z26	X27	Y27	Z27	X28	Y28	Z28	X29	Y29	Z29	X30	Y30	Z30	X31	Y31	Z31	X32	Y32	Z32	X33	Y33	Z33	X34	Y34	Z34	X35	Y35	Z35	X36	Y36	Z36	X37	Y37	Z37	X38	Y38	Z38	X39	Y39	Z39	X40	Y40	Z40	X41	Y41	Z41	X42	Y42	Z42	X43	Y43	Z43	X44	Y44	Z44	X45	Y45	Z45	X46	Y46	Z46	X47	Y47	Z47	X48	Y48	Z48	X49	Y49	Z49	X50	Y50	Z50	X51	Y51	Z51	X52	Y52	Z52	X53	Y53	Z53	X54	Y54	Z54	X55	Y55	Z55	X56	Y56	Z56	X57	Y57	Z57	X58	Y58	Z58	X59	Y59	Z59

431	2.155	430.81	1464.3	-78.646	417.95	1333.7	-4.5513	400.53	1237.2	129.78	361.09	872.54	-41.836	356.18	892.27	55.541	710.33	764.46	254.74	394.84	959.51	-202.15	735.3	365.47	-72.245	657.23	454.31	-144.94	386.69	1069.8	-5.9952	469.11	1103	-253.64	501.17	935.81	204.73	544.16	1257.7	-3.6553	596.73	866.15	267.2	478.96	709.85	-356.71	537.8	1127.5	227.85	421.36	874.19	-312.28	499.84	1277.9	147.22	492.05	1270.3	-170.56	431.39	751.55	-340.86	605.87	1498.3	19.259	444.9	544.22	163.5	496.14	743.27	-305.94	534.76	631.05	152.92	423.56	320.73	51.891	395.09	232.9	52.217	378.3	140.27	45.957	477.38	23.114	26.129	650.3	771.96	239.71	417.36	40.747	20.193	429.19	1471.5	44.683	602.12	1489	-57.738	465.49	634.65	188.97	435.93	444.23	142.24	267.91	48.806	76.122	706.03	808.29	206.01	402.54	32.035	78.784	487.42	717.38	215.5	637.53	564.6	-152.61	595.32	645.89	-172.28	381.77	233.05	122.98	548.06	724.71	-194.32	417.09	992.6	-270.72	324.43	74.063	12.007	895.15	105.99	-76.659	606.93	1152	-8.2136	553.5	986.41	268.82	645.17	686.82	-136.18	727.83	266.2	-136.82	582.26	867.09	144.03	792.75	191.98	-69.621	333.11	65.58	92.853	758.5	31.761	-64.605	942.13	110.02	-95.279	560.19	841.89	-161.47	782.12	81.294	-111.27	876.12	80.009	-127.29	755.27	275.59	-71.695	805.88	94.752	-36.964
432	2.16	436.2	1463.3	-79.43	423.47	1332.8	-5.3825	406	1236.4	129.04	366.9	871.76	-42.773	361.62	891.57	54.568	717	764.08	253.49	399.95	958.64	-202.32	741.76	365.41	-72.28	662.91	453.47	-144.97	392.25	1069	-6.7299	474.41	1102	-254.22	507.34	935	203.97	549.72	1256.8	-4.3453	603.2	865.53	266.19	482.28	708.71	-357.27	543.61	1126.8	227.06	425.62	873.34	-312.62	505.27	1277.1	146.52	497.77	1269.3	-171.3	434.98	750.69	-341.33	611.18	1497.6	18.503	448.58	543.82	163.41	499.73	742.03	-306.51	538.97	630.17	153.29	426.21	320.36	51.641	396.92	232.77	51.998	379.29	140.28	45.786	477.4	23.148	26.07	656.95	771.46	238.57	417.5	40.795	20.043	434.54	1470.5	43.897	607.46	1488.4	-58.503	469.46	634.16	188.93	439.25	443.81	142.06	268.08	49.732	75.955	712.53	807.94	204.76	402.56	32.089	78.607	491.65	716.81	215.49	643.01	563.61	-152.66	600.73	644.87	-172.47	383.55	233.05	122.78	553.37	723.64	-194.44	421.98	991.7	-271.01	324.86	74.554	11.886	905.03	107.08	-77.197	612.48	1151.1	-8.7229	559.81	985.73	267.92	650.58	685.86	-136.41	735.65	266.19	-137.15	587.65	866.46	143.13	801.38	192.55	-70.048	333.39	66.137	92.813	768.88	31.886	-65.329	951.77	111.56	-95.678	566.61	840.73	-161.44	792.1	81.831	-111.89	886.08	81.38	-127.95	762.86	275.75	-71.934	815.63	95.374	-37.528
433	2.165	441.59	1462.3	-80.233	429	1331.9	-6.2346	411.48	1235.6	128.28	372.76	871.02	-43.727	367.12	890.87	53.59	723.58	763.7	252.27	405.11	957.77	-202.5	748.09	365.24	-72.335	668.65	452.69	-144.99	397.85	1068.1	-7.4632	479.74	1101.1	-254.82	513.47	934.23	203.17	555.3	1256	-5.0586	609.6	864.92	265.17	485.71	707.59	-357.8	549.39	1126.1	226.27	429.94	872.5	-312.95	510.71	1276.4	145.8	503.48	1268.3	-172.06	438.66	749.83	-341.77	616.49	1496.9	17.734	452.36	543.44	163.27	503.42	740.82	-307.06	543.23	629.33	153.62	428.9	319.99	51.367	398.8	232.66	51.76	380.29	140.32	45.607	477.42	23.183	26.004	663.52	770.96	237.42	417.65	40.853	19.892	439.9	1469.5	43.09	612.81	1487.7	-59.279	473.5	633.69	188.83	442.66	443.41	141.83	268.26	50.734	75.793	718.96	807.58	203.52	402.59	32.161	78.438	495.91	716.26	215.45	648.56	562.7	-152.71	606.22	643.94	-172.64	385.39	233.08	122.58	558.76	722.66	-194.54	426.91	990.8	-271.31	325.3	75.094	11.761	914.12	107.85	-77.635	618.04	1150.2	-9.2506	566.05	985.06	267	656.11	684.99	-136.68	743.07	266.07	-137.43	593.08	865.83	142.22	809.45	192.93	-70.399	333.69	66.713	92.725	778.37	31.918	-65.904	960.67	112.67	-96	573.06	839.64	-161.39	801.25	82.193	-112.38	895.22	82.397	-128.47	770.12	275.77	-72.14	824.6	95.806	-37.971
434	2.17	446.99	1461.4	-81.054	434.53	1331	-7.1071	416.98	1234.8	127.49	378.65	870.31	-44.69	372.66	890.17	52.609	730.07	763.3	251.07	410.32	956.92	-202.69	754.31	364.97	-72.403	674.46	451.98	-145.01	403.47	1067.3	-8.1936	485.1	1100.1	-255.43	519.56	933.48	202.34	560.88	1255.2	-5.7961	615.92	864.33	264.15	489.23	706.49	-358.31	555.14	1125.5	225.47	434.32	871.65	-313.28	516.16	1275.6	145.06	509.2	1267.4	-172.85	442.44	748.98	-342.19	621.81	1496.3	16.956	456.22	543.06	163.08	507.21	739.64	-307.6	547.53	628.53	153.91	431.64	319.64	51.076	400.72	232.57	51.509	381.33	140.41	45.423	477.44	23.219	25.931	670	770.46	236.29	417.81	40.922	19.742	445.26	1468.6	42.265	618.15	1487.1	-60.066	477.6	633.21	188.69	446.16	443.01	141.57	268.47	51.816	75.639	725.33	807.21	202.31	402.65	32.253	78.278	500.22	715.72	215.39	654.2	561.88	-152.74	611.8	643.1	-172.79	387.28	233.16	122.37	564.25	721.77	-194.62	431.88	989.92	-271.61	325.76	75.688	11.637	922.43	108.27	-77.955	623.62	1149.4	-9.7986	572.23	984.4	266.08	661.76	684.21	-136.97	750.09	265.84	-137.63	598.57	865.2	141.3	816.98	193.1	-70.664	334.03	67.307	92.593	786.96	31.835	-66.324	968.82	113.33	-96.229	579.53	838.62	-161.34	809.6	82.356	-112.73	903.55	83.035	-128.86	777.03	275.66	-72.305	832.8	96.023	-38.287
435	2.175	452.39	1460.6	-81.894	440.06	1330.2	-7.9994	422.48	1234.1	126.68	384.59	869.64	-45.658	378.26	889.48	51.628	736.47	762.91	249.89	415.58	956.08	-202.89	760.4	364.58	-72.477	680.33	451.34	-145.02	409.12	1066.5	-8.9199	490.47	1099.2	-256.06	525.61	932.78	201.47	566.47	1254.4	-6.5587	622.17	863.75	263.12	492.86	705.41	-358.79	560.87	1124.8	224.66	438.76	870.82	-313.59	521.62	1274.9	144.29	514.92	1266.4	-173.65	446.31	748.14	-342.6	627.13	1495.7	16.168	460.18	542.69	162.84	511.12	738.5	-308.12	551.89	627.76	154.14	434.44	319.3	50.776	402.69	232.5	51.248	382.4	140.53	45.238	477.46	23.256	25.851	676.41	769.97	235.16	417.99	41.002	19.597	450.61	1467.7	41.42	623.51	1486.5	-60.863	481.77	632.75	188.5	449.75	442.63	141.27	268.69	52.98	75.5	731.63	806.83	201.12	402.72	32.367	78.131	504.59	715.19	215.31	659.92	561.15	-152.77	617.48	642.36	-172.92	389.24	233.27	122.16	569.86	720.99	-194.68	436.9	989.04	-271.92	326.24	76.337	11.519	929.95	108.33	-78.143	629.21	1148.7	-10.37	578.35	983.76	265.14	667.55	683.52	-137.28	756.73	265.48	-137.76	604.11	864.59	140.39	823.98	193.03	-70.833	334.4	67.927	92.427	794.67	31.62	-66.589	976.26	113.53	-96.349	586.03	837.68	-161.28	817.13	82.302	-112.94	911.07	83.28	-129.09	783.61	275.39	-72.422	840.23	96.007	-38.468
436	2.18	457.79	1459.8	-82.751	445.6	1329.4	-8.911	428	1233.4	125.85	390.57	869.01	-46.624	383.92	888.81	50.65	742.78	762.51	248.73	420.89	955.26	-203.1	766.38	364.07	-72.547	686.26	450.75	-145.01	414.79	1065.7	-9.642	495.88	1098.2	-256.7	531.63	932.11	200.58	572.07	1253.7	-7.347	628.35	863.18	262.09	496.59	704.36	-359.26	566.56	1124.2	223.84	443.27	870	-313.9	527.09	1274.3	143.5	520.63	1265.5	-174.48	450.27	747.32	-342.97	632.45	1495.2	15.371	464.24	542.33	162.55	515.13	737.38	-308.63	556.31	627.01	154.32	437.3	318.96	50.472	404.71	232.46	50.985	383.5	140.7	45.056	477.47	23.293	25.764	682.73	769.48	234.04	418.18	41.092	19.46	455.97	1466.8	40.557	628.87	1486	-61.669	486.03	632.29	188.27	453.43	442.27	140.95	268.95	54.233	75.378	737.85	806.45	199.96	402.82	32.505	77.996	509.01	714.67	215.2	665.72	560.5	-152.79	623.27	641.71	-173.03	391.25	233.43	121.95	575.6	720.32	-194.74	441.96	988.19	-272.24	326.75	77.046	11.413	936.72	108.03	-78.187	634.82	1148	-10.966	584.4	983.15	264.21	673.46	682.9	-137.61	762.98	264.98	-137.81	609.71	863.99	139.48	830.45	192.72	-70.901	334.81	68.579	92.242	801.5	31.266	-66.702	982.99	113.25	-96.349	592.53	836.81	-161.22	823.88	82.023	-113	917.81	83.127	-129.15	789.86	274.96	-72.482	846.9	95.746	-38.509
437	2.185	463.21	1459	-83.625	451.14	1328.7	-9.8413	433.54	1232.7	125.01	396.6	868.42	-47.584	389.64	888.17	49.676	749.01	762.12	247.58	426.23	954.46	-203.32	772.24	363.45	-72.601	692.22	450.21	-145	420.48	1065	-10.36	501.3	1097.3	-257.35	537.6	931.49	199.65	577.68	1253	-8.1616	634.45	862.64	261.06	500.42	703.32	-359.7	572.23	1123.7	223.02	447.86	869.19	-314.2	532.58	1273.7	142.69	526.33	1264.7	-175.34	454.34	746.51	-343.33	637.78	1494.6	14.564	468.39	541.98	162.22	519.24	736.3	-309.13	560.8	626.3	154.43	440.24	318.63	50.17	406.79	232.44	50.722	384.64	140.92	44.879	477.49	23.332	25.67	688.96	769	232.92	418.38	41.194	19.333	461.33	1466	39.676	634.23	1485.5	-62.485	490.37	631.84	188	457.2	441.92	140.61	269.22	55.577	75.277	744.01	806.06	198.82	402.95	32.665	77.877	513.51	714.16	215.06	671.59	559.92	-152.81	629.16	641.15	-173.12	393.33	233.63	121.75	581.48	719.76	-194.78	447.07	987.34	-272.57	327.28	77.818	11.322	942.75	107.35	-78.08	640.45	1147.3	-11.591	590.39	982.56	263.27	679.52	682.36	-137.94	768.86	264.34	-137.77	615.37	863.42	138.57	836.42	192.17	-70.863	335.26	69.275	92.055	807.49	30.771	-66.67	989.05	112.5	-96.218	599.05	836.03	-161.16	829.87	81.518	-112.91	923.8	82.576	-129.05	795.79	274.38	-72.479	852.85	95.234	-38.409
438	2.19	468.62	1458.3	-84.515	456.68	1328	-10.79	439.09	1232.1	124.14	402.68	867.87	-48.534	395.42	887.55	48.708	755.14	761.72	246.45	431.62	953.69	-203.56	777.98	362.71	-72.63	698.2	449.7	-144.97	426.2	1064.3	-11.075	506.74	1096.5	-258.01	543.53	930.92	198.7	583.31	1252.4	-9.0028	640.47	862.13	260.03	504.37	702.32	-360.13	577.87	1123.1	222.19	452.52	868.4	-314.49	538.08	1273.1	141.85	532.03	1263.9	-176.22	458.5	745.71	-343.66	643.12	1494.2	13.748	472.64	541.65	161.84	523.47	735.26	-309.62	565.36	625.62	154.49	443.25	318.31	49.877	408.94	232.45	50.463	385.82	141.18	44.71	477.51	23.371	25.57	695.1	768.53	231.81	418.59	41.307	19.218	466.69	1465.3	38.779	639.6	1485	-63.309	494.8	631.39	187.7	461.08	441.58	140.24	269.54	57.018	75.199	750.08	805.67	197.7	403.1	32.848	77.775	518.09	713.67	214.89	677.54	559.41	-152.83	635.16	640.68	-173.2	395.48	233.87	121.56	587.5	719.29	-194.83	452.22	986.52	-272.91	327.85	78.656	11.249	948.09	106.31	-77.818	646.1	1146.7	-12.246	596.32	982.01	262.33	685.7	681.88	-138.27	774.4	263.57	-137.64	621.1	862.88	137.67	841.91	191.4	-70.717	335.75	70.025	91.882	812.66	30.142	-66.503	994.47	111.28	-95.95	605.58	835.32	-161.12	835.14	80.794	-112.68	929.07	81.638	-128.78	801.42	273.65	-72.407	858.09	94.477	-38.17
439	2.195	474.05	1457.7	-85.421	462.23	1327.4	-11.757	444.67	1231.6	123.25	408.81	867.37	-49.471	401.26	886.98	47.748	761.18	761.34	245.35	437.04	952.95	-203.81	783.59	361.86	-72.622	704.19	449.2	-144.92	431.94	1063.6	-11.787	512.21	1095.6	-258.69	549.42	930.41	197.73	588.94	1251.9	-9.8709	646.41	861.64	259.01	508.43	701.34	-360.54	583.5	1122.7	221.35	457.26	867.63	-314.78	543.61	1272.5	140.98	537.72	1263.1	-177.12	462.77	744.94	-343.98	648.46	1493.7	12.922	476.99	541.32	161.43	527.8	734.25	-310.1	570.01	624.95	154.49	446.35	317.99	49.595	411.16	232.49	50.213	387.05	141.5	44.548	477.52	23.41	25.462	701.14	768.08	230.71	418.82	41.432	19.116	472.05	1464.6	37.866	644.98	1484.6	-64.141	499.33	630.96	187.37	465.06	441.26	139.86	269.89	58.561	75.145	756.08	805.29	196.62	403.28	33.054	77.69	522.75	713.19	214.69	683.54	558.95	-152.84	641.26	640.28	-173.27	397.7	234.16	121.37	593.67	718.92	-194.89	457.43	985.71	-273.27	328.46	79.565	11.195	952.77	104.91	-77.399	651.78	1146.2	-12.934	602.18	981.48	261.39	691.99	681.45	-138.6	779.6	262.68	-137.43	626.88	862.38	136.78	846.95	190.4	-70.464	336.28	70.842	91.739	817.06	29.396	-66.215	999.31	109.6	-95.541	612.12	834.69	-161.1	839.72	79.868	-112.32	933.67	80.33	-128.35	806.74	272.77	-72.263	862.68	93.486	-37.796
